<?xml version="1.0" standalone="no"?><!DOCTYPE svg PUBLIC "-//W3C//DTD SVG 1.1//EN" "http://www.w3.org/Graphics/SVG/1.1/DTD/svg11.dtd"><svg t="1512634146892" class="icon" style="" viewBox="0 0 1025 1024" version="1.1" xmlns="http://www.w3.org/2000/svg" p-id="10182" xmlns:xlink="http://www.w3.org/1999/xlink" width="100.09765625" height="100"><defs><style type="text/css"></style></defs><path d="M440.007979 498.454869c31.627818 0 57.267985-25.814137 57.267985-57.65686s-25.640167-57.65686-57.267985-57.65686-57.267985 25.814137-57.267985 57.65686S408.38016 498.454869 440.007979 498.454869zM884.672224 224.385997l-55.4853 0 0-85.737729c0-34.349944-27.912015-62.29573-62.221025-62.29573l-626.495036 0c-34.307986 0-62.221025 27.945786-62.221025 62.29573l0 632.871563c0 34.349944 27.912015 62.29573 62.221025 62.29573l83.667481 0 0 53.170471c0 8.218566 1.603598 16.064631 4.488436 23.264959l0 0.95172 0.365338-0.025584c9.490597 22.636619 31.874447 38.580494 57.917816 38.580494l597.76229 0c34.611922 0 62.770567-28.158644 62.770567-62.770567l0-599.829467C947.442791 252.544641 919.284147 224.385997 884.672224 224.385997zM224.138345 287.157587l0 444.323468-43.552978 0 0-552.791965 546.266028 0 0 45.69793-439.941461 0C252.298012 224.385997 224.138345 252.544641 224.138345 287.157587zM845.107262 629.570219l-165.95855-166.43441-156.569265 157.632532-59.646263-60.051512-136.459311 137.385447 0-371.38075 518.633389 0L845.107262 629.570219z" p-id="10183" fill="#333333"></path></svg>