<?xml version="1.0" standalone="no"?><!DOCTYPE svg PUBLIC "-//W3C//DTD SVG 1.1//EN" "http://www.w3.org/Graphics/SVG/1.1/DTD/svg11.dtd"><svg t="1512643148126" class="icon" style="" viewBox="0 0 1024 1024" version="1.1" xmlns="http://www.w3.org/2000/svg" p-id="18035" xmlns:xlink="http://www.w3.org/1999/xlink" width="100" height="100"><defs><style type="text/css"></style></defs><path d="M940.544 859.648l-266.24-266.24c38.4-54.784 61.44-121.344 61.44-193.536 0-185.344-150.528-335.872-335.872-335.872-185.344 0-335.872 150.528-335.872 335.872 0 185.344 150.528 335.872 335.872 335.872 72.192 0 139.264-23.04 194.048-61.952l265.728 265.728c24.576 24.576 62.464 26.112 84.48 4.096 22.528-21.504 20.48-59.392-3.584-83.968zM176.128 400.384c0-123.392 100.352-223.744 223.744-223.744s223.744 100.352 223.744 223.744-100.352 223.744-223.744 223.744-223.744-100.352-223.744-223.744z" fill="#ffffff" p-id="18036"></path></svg>