<?xml version="1.0" standalone="no"?><!DOCTYPE svg PUBLIC "-//W3C//DTD SVG 1.1//EN" "http://www.w3.org/Graphics/SVG/1.1/DTD/svg11.dtd"><svg t="1512640257718" class="icon" style="" viewBox="0 0 1024 1024" version="1.1" xmlns="http://www.w3.org/2000/svg" p-id="15255" xmlns:xlink="http://www.w3.org/1999/xlink" width="100" height="100"><defs><style type="text/css"></style></defs><path d="M408.034376 807.166184c-21.898271 0-39.703408-19.135405-39.703408-42.568602v-396.624763c0-23.535525 17.805136-42.568602 39.703408-42.568602s39.703408 19.135405 39.703408 42.568602v396.624763c0.409313 11.358449-3.888478 22.512241-11.665435 30.596182-7.572299 7.776956-17.498151 11.972419-28.037973 11.97242zM616.681923 807.166184c-21.898271 0-39.703408-19.135405-39.703408-42.568602v-396.624763c0-23.535525 17.805136-42.568602 39.703408-42.568602s39.703408 19.135405 39.703407 42.568602v396.624763c0 23.126212-18.112122 42.568602-39.703407 42.568602z" p-id="15256" fill="#666666"></path><path d="M242.160088 940.602378c-45.024483 0-81.760368-38.987109-81.760368-86.774458v-560.964125c0-21.386629-17.498151-38.782452-38.987109-38.782452H116.705506c-22.307585 0-39.703408-18.419107-39.703407-41.852303 0-23.023883 17.805136-41.852303 39.703407-41.852304h295.933647c21.488958 0 38.987109-17.395823 38.987109-38.782452 0-25.991406 18.21445-47.992006 39.703407-47.992006h41.238333c22.307585 0 39.703408 21.079644 39.703408 47.992006 0 21.386629 17.498151 38.782452 38.987109 38.782452h295.933646c22.307585 0 39.703408 18.419107 39.703408 41.852304 0.409313 11.870091-3.78615 22.819227-11.665434 30.903167-7.367643 7.572299-16.986509 11.665434-27.321675 11.665435h-4.707105c-21.488958 0-38.987109 17.395823-38.987109 38.782452v560.247826c0 47.889677-36.633557 86.774458-81.760368 86.774458h-540.293794z m36.633556-685.907065c-21.488958 0-38.987109 17.395823-38.987109 38.782453v516.04197c0 25.275107 19.237734 45.740781 42.875588 45.740782h457.919456c23.637854 0 42.875587-20.568002 42.875587-45.740782v-553.289497c0-0.920955-0.716299-1.534926-1.534926-1.534926H278.793644z" p-id="15257" fill="#666666"></path></svg>