<?xml version="1.0" standalone="no"?><!DOCTYPE svg PUBLIC "-//W3C//DTD SVG 1.1//EN" "http://www.w3.org/Graphics/SVG/1.1/DTD/svg11.dtd"><svg t="1512651922709" class="icon" style="" viewBox="0 0 1024 1024" version="1.1" xmlns="http://www.w3.org/2000/svg" p-id="18755" xmlns:xlink="http://www.w3.org/1999/xlink" width="100" height="100"><defs><style type="text/css"></style></defs><path d="M975.492021 294.316143L431.583403 836.848648c-1.032085 1.032085-1.204099 2.408198-2.236183 3.440282-19.609609 19.609609-48.507979 23.909961-72.417941 13.589115-9.288762-3.440282-18.061482-8.428691-25.458088-15.825298-2.408198-2.408198-3.440282-5.504452-5.504452-8.256678L57.108685 561.798085c-25.630102-25.630102-25.630102-67.257517 0-92.715606 25.630102-25.630102 67.429531-25.630102 93.059633 0l226.026542 225.510499 500.217033-499.012934c27.350244-27.350244 71.729884-27.350244 99.080128 0 27.350244 27.178229 27.350244 71.385856 0 98.736099z" p-id="18756" fill="#ffffff"></path></svg>