<?xml version="1.0" standalone="no"?><!DOCTYPE svg PUBLIC "-//W3C//DTD SVG 1.1//EN" "http://www.w3.org/Graphics/SVG/1.1/DTD/svg11.dtd"><svg t="1512640301866" class="icon" style="" viewBox="0 0 1024 1024" version="1.1" xmlns="http://www.w3.org/2000/svg" p-id="17090" xmlns:xlink="http://www.w3.org/1999/xlink" width="100" height="100"><defs><style type="text/css"></style></defs><path d="M246.464 772.352c0-26.64-20.592-48.288-45.983999999999995-48.288H77.93599999999998c-25.344 0-45.936 21.599999999999998-45.936 48.288 0 26.64 20.639999999999997 48.288 45.936 48.288H200.48000000000002c25.439999999999998 0 45.983999999999995-21.648 45.983999999999995-48.288zM32 498.752c0 26.688 20.639999999999997 48.24 45.936 48.24H200.48000000000002c25.439999999999998 0 45.983999999999995-21.599999999999998 45.983999999999995-48.24 0-26.688-20.592-48.336-45.983999999999995-48.336H77.93599999999998C52.64000000000004 450.416 32 472.01599999999996 32 498.752z m45.936-225.35999999999999H200.48000000000002c25.439999999999998 0 45.983999999999995-21.599999999999998 45.983999999999995-48.288S225.92000000000002 176.86400000000003 200.48000000000002 176.86400000000003H77.93599999999998c-25.344 0-45.936 21.599999999999998-45.936 48.24C32 251.74399999999997 52.59200000000004 273.44 77.93599999999998 273.44z" p-id="17091" fill="#666666"></path><path d="M928.6400000000001 32H169.808c-25.392000000000003 0-45.936 21.599999999999998-45.936 48.288v48.288H200.48000000000002c50.784000000000006 0 91.92 43.199999999999996 91.92 96.576 0 53.328-41.135999999999996 96.576-91.92 96.576H123.92000000000002v80.496H200.48000000000002c50.784000000000006 0 91.92 43.199999999999996 91.92 96.528 0 53.376-41.135999999999996 96.576-91.92 96.576H123.92000000000002v80.448H200.48000000000002c50.784000000000006 0 91.92 43.296 91.92 96.62400000000001 0 53.28-41.135999999999996 96.576-91.92 96.576H123.92000000000002v48.24c0 26.688 20.544 48.336 45.936 48.336H928.6400000000001c34.992000000000004 0 63.408-21.648 63.408-48.336V80.28800000000001C992 53.648000000000025 963.5840000000001 32 928.6400000000001 32zM736.9759999999999 555.2l48.24 184.512-147.552-110.352-147.024 109.824 53.28-182.832L396.848 441.91999999999996h185.856L641.6 257.88800000000003l58.224000000000004 183.98399999999998h183.648l-146.44799999999998 113.28z" p-id="17092" fill="#666666"></path></svg>