<?xml version="1.0" standalone="no"?><!DOCTYPE svg PUBLIC "-//W3C//DTD SVG 1.1//EN" "http://www.w3.org/Graphics/SVG/1.1/DTD/svg11.dtd"><svg t="1512657024995" class="icon" style="" viewBox="0 0 1024 1024" version="1.1" xmlns="http://www.w3.org/2000/svg" p-id="19527" xmlns:xlink="http://www.w3.org/1999/xlink" width="100" height="100"><defs><style type="text/css"></style></defs><path d="M959.620225 880.630708l-78.289064 79.004355-214.536144-215.776391c-63.155389 48.677653-141.809773 77.905324-227.389894 77.905324-207.342302 0-375.432625-169.634492-375.432624-378.875027S232.061798 64.004733 439.4041 64.004733c207.333092 0 375.419322 169.623235 375.419322 378.87298 0 82.510202-26.41358 158.650323-70.803579 220.847897l215.600382 216.905098zM439.4041 155.871023c-157.091828 0-284.436144 128.490419-284.436144 287.007713 0 158.52241 127.338177 287.025109 284.436144 287.025109 157.058059 0 284.396235-128.502699 284.396235-287.025109 0-158.517293-127.337153-287.007713-284.396235-287.007713z" p-id="19528" fill="#ffffff"></path></svg>