<?xml version="1.0" standalone="no"?><!DOCTYPE svg PUBLIC "-//W3C//DTD SVG 1.1//EN" "http://www.w3.org/Graphics/SVG/1.1/DTD/svg11.dtd"><svg t="1512640164340" class="icon" style="" viewBox="0 0 1024 1024" version="1.1" xmlns="http://www.w3.org/2000/svg" p-id="13935" xmlns:xlink="http://www.w3.org/1999/xlink" width="100" height="100"><defs><style type="text/css"></style></defs><path d="M571.797921 324.753385c-14.799054-15.137769-35.674501-24.973788-59.160401-24.973788-23.485901 0-44.361347 9.836019-58.915831 25.136493L214.750015 576.072271c-12.464893 13.549597-20.415982 31.041994-20.415982 50.434669 0 41.630143 35.641755 75.400271 79.57536 75.400271 23.485901 0 44.361347-9.821693 58.912761-25.15389L433.06216 571.652612l0 315.456648c0 41.658795 35.641755 75.397201 79.57536 75.397201s79.57536-33.738405 79.57536-75.397201L592.21288 571.652612l99.991342 105.310487c14.799054 15.126512 35.677571 24.948205 59.160401 24.948205 43.933605 0 79.57536-33.770128 79.57536-75.400271 0-19.392676-7.953136-36.888142-20.660552-50.260707L571.797921 324.753385z" p-id="13936" fill="#666666"></path><path d="M858.491479 70.28067 168.833243 70.28067c-43.933605 0-79.57536 33.749662-79.57536 75.385944 0 41.644469 35.641755 75.411527 79.57536 75.411527l689.658236 0c43.928488 0 79.573313-33.768081 79.573313-75.411527C938.064792 104.030331 902.419967 70.28067 858.491479 70.28067z" p-id="13937" fill="#666666"></path></svg>