<?xml version="1.0" standalone="no"?><!DOCTYPE svg PUBLIC "-//W3C//DTD SVG 1.1//EN" "http://www.w3.org/Graphics/SVG/1.1/DTD/svg11.dtd"><svg t="1512639582386" class="icon" style="" viewBox="0 0 1024 1024" version="1.1" xmlns="http://www.w3.org/2000/svg" p-id="12364" xmlns:xlink="http://www.w3.org/1999/xlink" width="100" height="100"><defs><style type="text/css"></style></defs><path d="M512 32c-265.096 0-479.999 214.903-479.999 480.001 0 265.097 214.903 479.999 479.999 479.999 265.097 0 480.001-214.903 480.001-479.999 0-265.098-214.904-480.001-480.001-480.001v0zM770.916 389.274l-324.666 324.665c-6.405 6.405-17.515 5.676-24.819-1.627l-21.762-21.762c-0.002-0.004-0.006-0.006-0.007-0.007l-145.462-145.462c-7.303-7.303-7.303-19.145 0-26.448l39.671-39.671c7.303-7.304 19.145-7.304 26.448 0l114.337 114.337 270.142-270.142c6.404-6.404 17.516-5.675 24.818 1.628l39.671 39.67c7.306 7.304 8.033 18.415 1.629 24.819v0z" p-id="12365" fill="#00BED0"></path></svg>