<?xml version="1.0" encoding="UTF-8" standalone="no"?>
<!-- Created with Keyshape -->
<svg xmlns="http://www.w3.org/2000/svg" xmlns:xlink="http://www.w3.org/1999/xlink" width="76px" height="39px" viewBox="0 0 82 45">
    <style>
@keyframes a0_o { 0% { opacity: 0; } 20% { opacity: 1; } 80% { opacity: 1; } 100% { opacity: 0; } }
@keyframes a0_mo { 0% { offset-distance: 0%; animation-timing-function: cubic-bezier(0.531692,0,0.528424,1); } 100% { offset-distance: 100%; } }
@keyframes a1_o { 0% { opacity: 0; } 20% { opacity: 1; } 80% { opacity: 1; } 100% { opacity: 0; } }
@keyframes a1_mo { 0% { offset-distance: 0%; animation-timing-function: cubic-bezier(0.531692,0,0.528424,1); } 100% { offset-distance: 100%; } }
@keyframes a2_o { 0% { opacity: 0; } 20% { opacity: 1; } 80% { opacity: 1; } 100% { opacity: 0; } }
@keyframes a2_mo { 0% { offset-distance: 0%; animation-timing-function: cubic-bezier(0.531692,0,0.528424,1); } 100% { offset-distance: 100%; } }
    </style>
    <title>live</title>
    <desc>Created with Sketch.</desc>
    <defs>
        <filter id="filter-1" x="-10.3%" y="-16.1%" width="120.6%" height="145.2%" filterUnits="objectBoundingBox">
            <feOffset dx="0" dy="2" in="SourceAlpha" result="shadowOffsetOuter1"/>
            <feGaussianBlur stdDeviation="2" in="shadowOffsetOuter1" result="shadowBlurOuter1"/>
            <feColorMatrix values="0 0 0 0 0   0 0 0 0 0   0 0 0 0 0  0 0 0 0.5 0" type="matrix" in="shadowBlurOuter1" result="shadowMatrixOuter1"/>
            <feMerge>
                <feMergeNode in="shadowMatrixOuter1"/>
                <feMergeNode in="SourceGraphic"/>
            </feMerge>
        </filter>
    </defs>
    <g id="Page-1" stroke="none" stroke-width="1" fill="none" fill-rule="evenodd">
        <g id="Artboard" fill-rule="nonzero" fill="#FFFF00" transform="translate(-1088,-27)">
            <g id="live" filter="url(#filter-1)" transform="translate(1092,29)">
                <path id="Shape" d="M61.9962,26.2636C62.4852,26.7294,63.0691,27.084,63.7079,27.3031C64.444,27.5239,65.2106,27.6265,65.9789,27.607L66.2345,27.607L65.499,30.1336L65.0694,30.1336C63.8225,30.1518,62.5792,29.9956,61.3756,29.6697C60.3716,29.3943,59.4351,28.9151,58.6245,28.262C57.4529,28.8205,56.2303,29.265,54.9736,29.5892C53.7698,29.8992,52.5367,30.0813,51.2947,30.1325L52.0464,27.6059C52.8489,27.5531,53.6457,27.4353,54.4292,27.2537C55.1581,27.0772,55.87,26.8365,56.5564,26.5342C56.0726,25.8911,55.7145,25.1625,55.5008,24.3866C55.2631,23.4715,55.1508,22.5283,55.1669,21.5829C55.1369,19.1574,56.055,16.8161,57.7257,15.0575C59.2437,13.3013,61.4499,12.2915,63.7712,12.2903C64.9185,12.229,66.0387,12.6525,66.8584,13.4575C67.6491,14.3292,68.0578,15.4812,67.9934,16.6563C67.9134,18.3975,67.3606,20.0839,66.3945,21.5346C65.2456,23.3787,63.7523,24.9843,61.9962,26.2636L61.9962,26.2636ZM64.7151,15.8682C64.4126,15.5752,64.0002,15.4242,63.5801,15.4526C62.4066,15.5373,61.363,16.2298,60.829,17.2781C60.0176,18.5406,59.6001,20.0159,59.6296,21.5164C59.6182,22.0568,59.6884,22.5958,59.8379,23.1152C59.9748,23.5628,60.2038,23.9769,60.5101,24.3308C61.8451,23.4438,62.9651,22.2698,63.7884,20.8946C64.5637,19.7795,65.0223,18.4752,65.1156,17.1202C65.1507,16.6666,65.0069,16.2172,64.7151,15.8682ZM49.4736,25.5442C48.565,26.9226,47.4164,28.1268,46.0825,29.0995C45.0273,29.8226,43.7795,30.2128,42.5003,30.2195C41.824,30.2322,41.1514,30.1182,40.517,29.8834C40.0205,29.7173,39.5893,29.3981,39.2854,28.9718C38.5871,29.3517,37.8388,29.6315,37.0626,29.8029C36.1271,30.0105,35.1739,30.1284,34.216,30.1551L34.9676,27.6284C35.5875,27.6022,36.2035,27.5166,36.807,27.3729C37.3213,27.2487,37.8162,27.0551,38.2781,26.7973C38.1822,26.4029,38.1074,26.0403,38.0537,25.7095C38.0312,25.4115,38.0312,25.1121,38.0537,24.814C38.1097,23.4048,38.3627,22.0104,38.8054,20.6713C39.3607,18.8482,40.0561,17.0708,40.8853,15.3549L41.1248,14.8749C41.9881,13.0516,42.7931,12.1399,43.5398,12.1399C44.2998,12.1293,45.0495,12.3166,45.7153,12.6833C46.3653,13.0455,46.6906,13.4507,46.6914,13.8988C46.5207,14.5063,46.2678,15.0876,45.9397,15.6266C45.4386,16.5966,45.0123,17.4495,44.6608,18.1854C43.9183,19.6461,43.2562,21.1463,42.6775,22.6793C42.3211,23.6393,42.1108,24.6474,42.0536,25.6698C42.0313,26.081,42.1608,26.4861,42.4176,26.808C42.6558,27.1007,43.0165,27.2662,43.3937,27.2558C44.4596,27.2558,45.6483,26.361,46.9598,24.5713C48.34,22.6548,49.3155,20.4773,49.8269,18.1715C49.2739,18.1393,48.7613,17.8715,48.4191,17.4359C48.0603,16.9102,47.8858,16.2803,47.923,15.6448C47.892,14.8242,48.1655,14.0211,48.6908,13.3898C49.1795,12.8595,49.8588,12.5451,50.5793,12.5157C51.2999,12.4863,52.0026,12.7443,52.5328,13.2331C52.5872,13.2832,52.6395,13.3354,52.6896,13.3898C53.2064,14.0788,53.4614,14.9291,53.409,15.7887C53.3401,17.3568,52.9758,18.8979,52.3352,20.3309C51.5829,22.1721,50.6224,23.9212,49.4725,25.5442L49.4736,25.5442ZM35.8793,6.68827C35.2596,6.75343,34.6437,6.53502,34.2035,6.09403C33.7634,5.65303,33.5461,5.03671,33.6125,4.41718C33.5872,3.549,33.8944,2.70394,34.4715,2.05482C34.993,1.44007,35.7604,1.08843,36.5665,1.09484C37.1658,1.09073,37.7417,1.32706,38.1654,1.75093C38.6048,2.19729,38.842,2.80433,38.8215,3.43036C38.8455,4.28544,38.5377,5.11665,37.9624,5.74976C37.4344,6.34633,36.676,6.688,35.8793,6.68827L35.8793,6.68827ZM35.9587,12.6221C36.1959,12.739,36.3449,12.9816,36.3421,13.246C36.2375,14.0041,36.0203,14.7424,35.6978,15.4365C35.2683,16.5024,34.959,17.3447,34.77,17.9632L32.9789,23.4009L32.9789,23.6232C32.6519,24.4401,32.4262,25.2941,32.3067,26.1659C32.2598,26.6067,32.4665,27.036,32.8404,27.2741C33.5262,27.5506,34.2605,27.6864,34.9998,27.6735L34.2804,30.2002L33.6243,30.2002C32.3823,30.2724,31.1404,30.0589,29.9938,29.5763C29.2071,29.1875,28.6671,28.4311,28.5549,27.5608C27.8935,28.3498,27.084,29.0017,26.1721,29.4797C25.2895,29.9152,24.3251,30.1604,23.3416,30.1991L23.1322,30.1991C21.6416,30.2055,20.1604,29.9624,18.75,29.4797C17.3167,28.9747,15.9725,28.2458,14.7673,27.3202C13.778,28.3067,12.582,29.0611,11.2656,29.5291C9.81169,30.0375,8.2797,30.2865,6.73957,30.2646C5.00014,30.3624,3.27351,29.9154,1.80009,28.9857C0.6313,28.1879,-0.0471524,26.8468,0.00255441,25.4325C-0.0271958,23.9436,0.636136,22.5253,1.79795,21.5937C3.0832,20.5524,4.70338,20.0142,6.35623,20.0796C7.55465,20.0869,8.74362,20.2923,9.87507,20.6874C11.1341,21.1255,12.3282,21.7316,13.425,22.4892C13.9688,21.1604,14.444,19.8045,14.8489,18.427C15.35,16.7848,15.9363,14.5989,16.6078,11.8693C15.321,11.7635,14.0902,11.2968,13.0567,10.5228C12.2577,9.86449,11.8088,8.87309,11.8412,7.8383C11.8062,7.14626,11.9969,6.46156,12.3845,5.88721C12.7131,5.41072,13.2453,5.11487,13.8234,5.08723C13.9117,5.96905,14.3088,6.79131,14.9445,7.40878C15.7007,8.04176,16.6213,8.44659,17.5989,8.576C18.1604,6.40893,19.2608,4.41905,20.7978,2.79145C22.026,1.51037,23.7252,0.787886,25.4999,0.792032C26.6523,0.714023,27.7924,1.06729,28.6988,1.78315C29.4725,2.51451,29.8825,3.55095,29.8187,4.61368C29.8089,6.48092,28.9566,8.24392,27.4993,9.41142C25.7384,10.8484,23.5892,11.7281,21.3261,11.9381C20.8722,14.4515,20.2469,16.931,19.4544,19.3591C18.823,21.2569,17.9866,23.0803,16.96,24.7968C17.9796,25.6313,19.1239,26.3006,20.3511,26.7801C21.538,27.2655,22.797,27.5518,24.0771,27.6274C25.6692,27.5054,27.0905,26.5838,27.8515,25.1802C29.2334,22.7465,30.2313,20.114,30.8099,17.3758C30.9487,16.8031,31.1087,16.0729,31.2899,15.1852C31.5352,13.3869,33.1829,12.1214,34.9837,12.3483C35.3203,12.346,35.6534,12.4171,35.9598,12.5566L35.9587,12.6221ZM8.9312,23.8175C8.02574,23.5042,7.07489,23.342,6.11677,23.3375C5.32466,23.3015,4.53974,23.5018,3.86179,23.9131C3.31699,24.2413,2.98792,24.8346,2.99787,25.4706C3.00783,26.1065,3.35531,26.6892,3.91011,27.0003C4.69241,27.4108,5.5705,27.604,6.45287,27.5597C7.39262,27.5733,8.32465,27.3882,9.18784,27.0164C10.079,26.5976,10.8811,26.011,11.5502,25.2886C10.7658,24.6324,9.87976,24.1084,8.9269,23.737L8.9312,23.8175ZM25.3872,6.65712C26.1909,6.03623,26.7007,5.1095,26.7949,4.09826C26.8113,3.77093,26.6894,3.45178,26.4588,3.21882C26.2155,2.99578,25.8929,2.87973,25.5633,2.89668C24.6745,2.99104,23.896,3.53408,23.5005,4.33557C22.7396,5.61154,22.199,7.00661,21.9016,8.46218C23.2186,8.16229,24.4293,7.51017,25.4044,6.57552L25.3872,6.65712Z"/>
            </g>
        </g>
    </g>
    <ellipse rx="2.5" ry="2.5" fill="#ffff00" stroke="none" opacity="0" style="animation: a0_o 5s linear 2s infinite both, a0_mo 5s linear 2s infinite both; offset-path: path('M1.86219,41.9749C25.7009,41.9571,72,41.9749,72,41.9749'); offset-rotate: 0deg;"/>
    <ellipse rx="2.5" ry="2.5" fill="#ffff00" stroke="none" opacity="0" style="animation: a1_o 5s linear infinite both, a1_mo 5s linear infinite both; offset-path: path('M1.86219,41.9749C25.7009,41.9571,72,41.9749,72,41.9749'); offset-rotate: 0deg;"/>
    <ellipse rx="2.5" ry="2.5" fill="#ffff00" stroke="none" opacity="0" style="animation: a2_o 5s linear 1s infinite both, a2_mo 5s linear 1s infinite both; offset-path: path('M1.86219,41.9749C25.7009,41.9571,74.4915,41.7458,74.4915,41.7458'); offset-rotate: 0deg;"/>
</svg>
